M48
; DRILL file {KiCad 6.0.5-a6ca702e91~116~ubuntu20.04.1} date jue 29 sep 2022 11:25:48
; FORMAT={-:-/ absolute / inch / decimal}
; #@! TF.CreationDate,2022-09-29T11:25:48-03:00
; #@! TF.GenerationSoftware,Kicad,Pcbnew,6.0.5-a6ca702e91~116~ubuntu20.04.1
; #@! TF.FileFunction,Plated,1,2,PTH
FMAT,2
INCH
; #@! TA.AperFunction,Plated,PTH,ViaDrill
T1C0.0315
; #@! TA.AperFunction,Plated,PTH,ComponentDrill
T2C0.0315
; #@! TA.AperFunction,Plated,PTH,ComponentDrill
T3C0.0394
; #@! TA.AperFunction,Plated,PTH,ComponentDrill
T4C0.0394
%
G90
G05
T1
X0.9317Y-2.2437
X0.9317Y-4.9138
X1.0173Y-1.1382
X1.0173Y-3.8083
X1.0508Y-1.6148
X1.0508Y-4.2848
X1.2772Y-0.8283
X1.2772Y-3.4984
X1.6846Y-0.9701
X1.6846Y-3.6402
X2.1719Y-1.5075
X2.1719Y-4.1776
X2.1933Y-1.198
X2.1933Y-3.8681
X2.2752Y-2.1484
X2.2752Y-4.8185
X3.5691Y-2.2437
X3.5691Y-4.9138
X3.6547Y-1.1382
X3.6547Y-3.8083
X3.6882Y-1.6148
X3.6882Y-4.2848
X3.9146Y-0.8283
X3.9146Y-3.4984
X4.322Y-0.9701
X4.322Y-3.6402
X4.8093Y-1.5075
X4.8093Y-4.1776
X4.8307Y-1.198
X4.8307Y-3.8681
X4.9126Y-2.1484
X4.9126Y-4.8185
X6.388Y-2.2472
X6.388Y-4.9173
X6.4736Y-1.1417
X6.4736Y-3.8118
X6.5071Y-1.6183
X6.5071Y-4.2884
X6.7335Y-0.8319
X6.7335Y-3.502
X7.1409Y-0.9736
X7.1409Y-3.6437
X7.6281Y-1.511
X7.6281Y-4.1811
X7.6496Y-1.2016
X7.6496Y-3.8717
X7.7315Y-2.152
X7.7315Y-4.822
X9.0254Y-2.2472
X9.0254Y-4.9173
X9.111Y-1.1417
X9.111Y-3.8118
X9.1445Y-1.6183
X9.1445Y-4.2884
X9.3709Y-0.8319
X9.3709Y-3.502
X9.7783Y-0.9736
X9.7783Y-3.6437
X10.2656Y-1.511
X10.2656Y-4.1811
X10.287Y-1.2016
X10.287Y-3.8717
X10.3689Y-2.152
X10.3689Y-4.822
T2
X0.828Y-0.8057
X0.828Y-3.4758
X1.128Y-0.8057
X1.128Y-3.4758
X2.3559Y-1.0031
X2.3559Y-1.3031
X2.3559Y-3.6732
X2.3559Y-3.9732
X2.3618Y-1.4992
X2.3618Y-1.7992
X2.3618Y-4.1693
X2.3618Y-4.4693
X2.5134Y-1.0031
X2.5134Y-1.3031
X2.5134Y-3.6732
X2.5134Y-3.9732
X2.5366Y-1.6134
X2.5366Y-1.7134
X2.5366Y-4.2835
X2.5366Y-4.3835
X3.4654Y-0.8057
X3.4654Y-3.4758
X3.7654Y-0.8057
X3.7654Y-3.4758
X4.9933Y-1.0031
X4.9933Y-1.3031
X4.9933Y-3.6732
X4.9933Y-3.9732
X4.9992Y-1.4992
X4.9992Y-1.7992
X4.9992Y-4.1693
X4.9992Y-4.4693
X5.1508Y-1.0031
X5.1508Y-1.3031
X5.1508Y-3.6732
X5.1508Y-3.9732
X5.174Y-1.6134
X5.174Y-1.7134
X5.174Y-4.2835
X5.174Y-4.3835
X6.2843Y-0.8093
X6.2843Y-3.4793
X6.5843Y-0.8093
X6.5843Y-3.4793
X7.8122Y-1.0067
X7.8122Y-1.3067
X7.8122Y-3.6768
X7.8122Y-3.9768
X7.8181Y-1.5028
X7.8181Y-1.8028
X7.8181Y-4.1728
X7.8181Y-4.4728
X7.9697Y-1.0067
X7.9697Y-1.3067
X7.9697Y-3.6768
X7.9697Y-3.9768
X7.9929Y-1.6169
X7.9929Y-1.7169
X7.9929Y-4.287
X7.9929Y-4.387
X8.9217Y-0.8093
X8.9217Y-3.4793
X9.2217Y-0.8093
X9.2217Y-3.4793
X10.4496Y-1.0067
X10.4496Y-1.3067
X10.4496Y-3.6768
X10.4496Y-3.9768
X10.4555Y-1.5028
X10.4555Y-1.8028
X10.4555Y-4.1728
X10.4555Y-4.4728
X10.6071Y-1.0067
X10.6071Y-1.3067
X10.6071Y-3.6768
X10.6071Y-3.9768
X10.6303Y-1.6169
X10.6303Y-1.7169
X10.6303Y-4.287
X10.6303Y-4.387
T3
X0.7657Y-2.4799
X0.7657Y-2.6571
X0.7657Y-5.15
X0.7657Y-5.3272
X1.0217Y-2.4799
X1.0217Y-2.6571
X1.0217Y-5.15
X1.0217Y-5.3272
X1.3524Y-2.4843
X1.3524Y-2.6614
X1.3524Y-5.1543
X1.3524Y-5.3315
X1.6083Y-2.4843
X1.6083Y-2.6614
X1.6083Y-5.1543
X1.6083Y-5.3315
X1.9012Y-2.4776
X1.9012Y-2.6547
X1.9012Y-5.1476
X1.9012Y-5.3248
X2.1571Y-2.4776
X2.1571Y-2.6547
X2.1571Y-5.1476
X2.1571Y-5.3248
X3.4031Y-2.4799
X3.4031Y-2.6571
X3.4031Y-5.15
X3.4031Y-5.3272
X3.6591Y-2.4799
X3.6591Y-2.6571
X3.6591Y-5.15
X3.6591Y-5.3272
X3.9898Y-2.4843
X3.9898Y-2.6614
X3.9898Y-5.1543
X3.9898Y-5.3315
X4.2457Y-2.4843
X4.2457Y-2.6614
X4.2457Y-5.1543
X4.2457Y-5.3315
X4.5386Y-2.4776
X4.5386Y-2.6547
X4.5386Y-5.1476
X4.5386Y-5.3248
X4.7945Y-2.4776
X4.7945Y-2.6547
X4.7945Y-5.1476
X4.7945Y-5.3248
X6.222Y-2.4835
X6.222Y-2.6606
X6.222Y-5.1535
X6.222Y-5.3307
X6.478Y-2.4835
X6.478Y-2.6606
X6.478Y-5.1535
X6.478Y-5.3307
X6.8087Y-2.4878
X6.8087Y-2.665
X6.8087Y-5.1579
X6.8087Y-5.335
X7.0646Y-2.4878
X7.0646Y-2.665
X7.0646Y-5.1579
X7.0646Y-5.335
X7.3575Y-2.4811
X7.3575Y-2.6583
X7.3575Y-5.1512
X7.3575Y-5.3283
X7.6134Y-2.4811
X7.6134Y-2.6583
X7.6134Y-5.1512
X7.6134Y-5.3283
X8.8594Y-2.4835
X8.8594Y-2.6606
X8.8594Y-5.1535
X8.8594Y-5.3307
X9.1154Y-2.4835
X9.1154Y-2.6606
X9.1154Y-5.1535
X9.1154Y-5.3307
X9.4461Y-2.4878
X9.4461Y-2.665
X9.4461Y-5.1579
X9.4461Y-5.335
X9.702Y-2.4878
X9.702Y-2.665
X9.702Y-5.1579
X9.702Y-5.335
X9.9949Y-2.4811
X9.9949Y-2.6583
X9.9949Y-5.1512
X9.9949Y-5.3283
X10.2508Y-2.4811
X10.2508Y-2.6583
X10.2508Y-5.1512
X10.2508Y-5.3283
T4
X0.9228Y-1.5157
X0.9228Y-1.6157
X0.9228Y-1.7157
X0.9228Y-1.8157
X0.9228Y-4.1858
X0.9228Y-4.2858
X0.9228Y-4.3858
X0.9228Y-4.4858
X1.0534Y-2.0185
X1.0534Y-2.1185
X1.0534Y-4.6886
X1.0534Y-4.7886
X1.4201Y-0.8185
X1.4201Y-3.4886
X1.5201Y-0.8185
X1.5201Y-3.4886
X1.6201Y-0.8185
X1.6201Y-3.4886
X1.7201Y-0.8185
X1.7201Y-3.4886
X3.5602Y-1.5157
X3.5602Y-1.6157
X3.5602Y-1.7157
X3.5602Y-1.8157
X3.5602Y-4.1858
X3.5602Y-4.2858
X3.5602Y-4.3858
X3.5602Y-4.4858
X3.6908Y-2.0185
X3.6908Y-2.1185
X3.6908Y-4.6886
X3.6908Y-4.7886
X4.0575Y-0.8185
X4.0575Y-3.4886
X4.1575Y-0.8185
X4.1575Y-3.4886
X4.2575Y-0.8185
X4.2575Y-3.4886
X4.3575Y-0.8185
X4.3575Y-3.4886
X6.3791Y-1.5193
X6.3791Y-1.6193
X6.3791Y-1.7193
X6.3791Y-1.8193
X6.3791Y-4.1894
X6.3791Y-4.2894
X6.3791Y-4.3894
X6.3791Y-4.4894
X6.5097Y-2.022
X6.5097Y-2.122
X6.5097Y-4.6921
X6.5097Y-4.7921
X6.8764Y-0.822
X6.8764Y-3.4921
X6.9764Y-0.822
X6.9764Y-3.4921
X7.0764Y-0.822
X7.0764Y-3.4921
X7.1764Y-0.822
X7.1764Y-3.4921
X9.0165Y-1.5193
X9.0165Y-1.6193
X9.0165Y-1.7193
X9.0165Y-1.8193
X9.0165Y-4.1894
X9.0165Y-4.2894
X9.0165Y-4.3894
X9.0165Y-4.4894
X9.1471Y-2.022
X9.1471Y-2.122
X9.1471Y-4.6921
X9.1471Y-4.7921
X9.5138Y-0.822
X9.5138Y-3.4921
X9.6138Y-0.822
X9.6138Y-3.4921
X9.7138Y-0.822
X9.7138Y-3.4921
X9.8138Y-0.822
X9.8138Y-3.4921
T0
M30
